<?xml version="1.0" encoding="utf-8"?>
<!-- Generator: Adobe Illustrator 18.1.1, SVG Export Plug-In . SVG Version: 6.00 Build 0)  -->
<svg version="1.1" id="Layer_1" xmlns="http://www.w3.org/2000/svg" xmlns:xlink="http://www.w3.org/1999/xlink" x="0px" y="0px"
	 viewBox="0 363.2 612 65.6" enable-background="new 0 363.2 612 65.6" xml:space="preserve">
<g id="button">
	<g id="left_side">
		<path fill="#2C3E50" d="M336.7,363.2h242.5c18.1,0,32.7,14.7,32.7,32.8l0,0c0,18.1-14.7,32.7-32.7,32.7H336.7V363.2z"/>
	</g>
	<g id="right_side">
		<path fill="#3B97D3" d="M32.7,363.2h304v65.6h-304C14.7,428.8,0,414.1,0,396l0,0C0,377.9,14.7,363.2,32.7,363.2z"/>
	</g>
	<g id="center">
		<circle fill="#2980BA" cx="336.7" cy="396" r="26.5"/>
	</g>
	<g id="colors">
	</g>
</g>
<text transform="matrix(1 0 0 1 38.2017 407)" fill="#FFFFFF" font-family="'SegoeUI-Light'" font-size="29">BECOME A MEMBER</text>
<text transform="matrix(1 0 0 1 317.6489 407)" fill="#FFFFFF" font-family="'SegoeUI-Light'" font-size="29">OR</text>
<text transform="matrix(1 0 0 1 379.5522 407)" fill="#FFFFFF" font-family="'SegoeUI-Light'" font-size="29">VIEW PROJECTS</text>
</svg>
