<?xml version="1.0" encoding="utf-8"?>
<!-- Generator: Adobe Illustrator 18.1.1, SVG Export Plug-In . SVG Version: 6.00 Build 0)  -->
<svg version="1.1" id="Layer_1" xmlns="http://www.w3.org/2000/svg" xmlns:xlink="http://www.w3.org/1999/xlink" x="0px" y="0px"
	 viewBox="125.1 238.4 363.2 317.3" enable-background="new 125.1 238.4 363.2 317.3" xml:space="preserve">
<g>
	<path fill="#389AD5" d="M361.3,347.8c0,25.2-20.6,45.7-45.7,45.6c-25.2-0.1-45.3-20.5-45.3-45.9c0.1-24.8,20.3-45.1,45.2-45.2
		C340.6,302,361.3,322.7,361.3,347.8z"/>
	<path fill="#333333" d="M246.6,555.7c-17.1,0-29.9-12.8-29.9-29.8c0-16.6,13.4-30,30.2-29.7c4.1,0.1,5.7-1.4,7.2-5.2
		c11-29.4,22.3-58.6,33.6-87.9c1.7-4.6,1.7-4.5,6.9-2.5c5.9,2.4,6,2.4,3.7,8.4c-11,28.9-22,57.6-33.2,86.4c-1.5,3.9-1.3,6.2,1.9,9
		c8.2,7.3,10.9,16.6,8.9,27.3C273,546.1,261.2,555.7,246.6,555.7z"/>
	<path fill="#333333" d="M428.8,440.3c-0.2-2.9,0.1-5.8,1-8.6c0.7-2.1,0-3.3-1.7-4.5c-16-10.3-31.9-20.6-47.8-31
		c-5.7-3.7-11.3-7.4-17.1-11c-1.9-1.2-2.8-2.3-0.9-4.1c0.7-0.7,1.2-1.7,1.8-2.7c3.1-5,3.1-5,8.1-1.7c20.3,13.2,40.6,26.4,60.8,39.6
		c2.8,1.8,4.9,2,7.8,0c19.8-13.6,45-2.3,47.4,21.6c1.7,16.9-11.3,31.3-28,32.1c-16.2,0.9-28.1-10.5-31-23.2
		C428.8,444.6,429,442.5,428.8,440.3z"/>
	<path fill="#333333" d="M155.1,416.1c-16,0-28.9-11.1-29.9-27.2c-1.5-24.7,22.3-37.4,40.1-30.5c6.8,2.7,12.3,6.8,15.7,13.3
		c0.9,1.8,2.1,2.3,4.1,1.7c21.6-5.5,43.2-10.8,64.8-16.4c9.5-2.5,9.7-2.4,11.5,7.2c0.5,2.8-1.5,2.6-3,3c-14.5,3.7-29.1,7.3-43.7,11
		c-8.8,2.2-17.6,4.4-26.5,6.5c-2.3,0.6-3.4,1.7-3.6,4.2C183.4,404.9,171.1,416.1,155.1,416.1z"/>
	<path fill="#333333" d="M180.1,268c0.1-12.1,5.7-21.4,17-26.7c11.7-5.5,25.2-3.3,33.9,5.8c8.1,8.4,10.9,18.8,7.1,30.1
		c-1,3.2-0.4,4.7,2.1,6.5c10.5,7.6,20.8,15.4,31.3,23c2.3,1.6,2.8,2.8,0.5,4.7c-0.7,0.7-1.2,1.5-1.8,2.3c-3.6,4.8-3.6,4.7-8.3,1.2
		c-9.6-7.3-19.4-14.5-29-21.7c-2.2-1.7-3.9-1.9-6.3-0.2c-17.8,11.8-40.6,2.9-46-17.8C180.1,273,180.4,270.8,180.1,268z"/>
	<path fill="#333333" d="M427.1,251c12.9,0,23.3,7,28.2,18.7c4.5,10.8,1.7,23.4-6.9,32.1c-11.6,11.6-29.3,12-41.1,0.7
		c-2.1-2-3.6-1.5-5.7-0.3c-10,6.1-20.1,12.1-30.2,18.2c-4.1,2.5-4.1,2.5-6.5-1.5c-3.6-6.3-3.6-6.3,2.6-10.1
		c9.5-5.7,18.8-11.4,28.4-16.9c2.2-1.3,2.9-2.5,2.4-5.2c-3.1-16.9,6.4-31.3,23-35.1C423.4,251,425.5,251.2,427.1,251z"/>
</g>
</svg>
