<?xml version="1.0" encoding="utf-8"?>
<!-- Generator: Adobe Illustrator 18.1.1, SVG Export Plug-In . SVG Version: 6.00 Build 0)  -->
<svg version="1.1" id="Layer_1" xmlns="http://www.w3.org/2000/svg" xmlns:xlink="http://www.w3.org/1999/xlink" x="0px" y="0px"
	 viewBox="0 0 139.8 81.5" enable-background="new 0 0 139.8 81.5" xml:space="preserve">
<g>
	<defs>
		<rect id="SVGID_1_" x="-12.3" y="-8.4" width="164.7" height="102"/>
	</defs>
	<clipPath id="SVGID_2_">
		<use xlink:href="#SVGID_1_"  overflow="visible"/>
	</clipPath>
	<path clip-path="url(#SVGID_2_)" fill="#2D2D2D" d="M64,25.5l2.4,2.4v-5l-2.3-4.7c-0.5-1.1-0.8-2.3-0.8-3.5V7.8
		c0-2.8-2.2-6.2-3.2-7.5c-0.2-0.3-0.6-0.3-0.8,0c-1,1.3-3.2,4.7-3.2,7.5v6.9c0,1.2-0.3,2.4-0.8,3.5l-2.3,4.7v5l2.3-2.3
		c0.4-0.4,1.1-0.5,1.7-0.2c0.5,0.3,1.3,0.5,2.7,0.5c1.3,0,2.2-0.3,2.7-0.5C62.9,24.9,63.6,25.1,64,25.5"/>
	<path clip-path="url(#SVGID_2_)" fill="#CE1F3D" d="M61.4,27.9c0,0.1,0,1.1-0.5,2.2c-0.3,0.6-0.3,0.5-1.1,2.8c0,0-0.8-2.1-1.2-2.8
		C58,28.9,58,27.9,58,27.9c0-0.9,0.8-1.7,1.7-1.7S61.4,26.9,61.4,27.9"/>
</g>
<g>
	<defs>
		<path id="SVGID_3_" d="M46.3,55.3c-1.8-0.5-3.7-0.8-5.6-0.8c-11,0-20.1,8.7-20.7,19.6c-2.1-1.7-5-2.8-8.1-2.8
			C5.5,71.3,0.3,75.8,0,81.5h48.9c5,0,9.1-4.1,9.1-9.1V36.2C51.7,40.5,47.2,47.3,46.3,55.3"/>
	</defs>
	<clipPath id="SVGID_4_">
		<use xlink:href="#SVGID_3_"  overflow="visible"/>
	</clipPath>
	
		<linearGradient id="SVGID_5_" gradientUnits="userSpaceOnUse" x1="-12.27" y1="93.5625" x2="-11.27" y2="93.5625" gradientTransform="matrix(73.3333 61.3333 61.3333 -73.3333 -4803.0571 7678.2153)">
		<stop  offset="0" style="stop-color:#104870"/>
		<stop  offset="1" style="stop-color:#24A0D8"/>
	</linearGradient>
	<polygon clip-path="url(#SVGID_4_)" fill="url(#SVGID_5_)" points="23.9,7.7 80.3,54.9 34.1,110 -22.3,62.9 	"/>
</g>
<g>
	<defs>
		<path id="SVGID_6_" d="M61.5,34.3v38.1c0,5,4.1,9.1,9.1,9.1H78c1.1-10.1,11.3-18.1,23.8-18.1s22.7,7.9,23.8,18.1h14.2
			c0-0.2,0-0.3,0-0.5c0-7.6-8-13.7-17.8-13.7c-0.1,0-0.2,0-0.3,0c-0.6-10.8-9.6-19.4-20.6-19.4c-1.2,0-2.4,0.1-3.5,0.3
			C93.6,38.5,84,31.7,72.9,31.7C68.8,31.7,65,32.6,61.5,34.3"/>
	</defs>
	<clipPath id="SVGID_7_">
		<use xlink:href="#SVGID_6_"  overflow="visible"/>
	</clipPath>
	
		<linearGradient id="SVGID_8_" gradientUnits="userSpaceOnUse" x1="-12.27" y1="93.7124" x2="-11.27" y2="93.7124" gradientTransform="matrix(73.3333 61.3333 61.3333 -73.3333 -4781.6553 7652.6265)">
		<stop  offset="0" style="stop-color:#104870"/>
		<stop  offset="1" style="stop-color:#24A0D8"/>
	</linearGradient>
	<polygon clip-path="url(#SVGID_7_)" fill="url(#SVGID_8_)" points="93.7,-6.8 164.3,52.2 107.6,120 37,61 	"/>
</g>
</svg>
